<svg width="20" height="20" viewBox="0 0 20 20" fill="none" xmlns="http://www.w3.org/2000/svg">
<path fill-rule="evenodd" clip-rule="evenodd" d="M9.75 0C4.36522 0 0 4.36522 0 9.75C0 15.1348 4.36522 19.5 9.75 19.5C15.1348 19.5 19.5 15.1348 19.5 9.75C19.4943 4.36758 15.1324 0.00568393 9.75 0ZM9.75 18C5.19365 18 1.5 14.3063 1.5 9.75C1.5 5.19365 5.19365 1.5 9.75 1.5C14.3063 1.5 18 5.19365 18 9.75C17.9948 14.3042 14.3042 17.9948 9.75 18ZM11.25 14.25C11.25 14.6642 10.9142 15 10.5 15C9.67157 15 9 14.3284 9 13.5V9.75C8.58579 9.75 8.25 9.41421 8.25 9C8.25 8.58579 8.58579 8.25 9 8.25C9.82843 8.25 10.5 8.92157 10.5 9.75V13.5C10.9142 13.5 11.25 13.8358 11.25 14.25ZM8.25 5.625C8.25 5.00368 8.75368 4.5 9.375 4.5C9.99632 4.5 10.5 5.00368 10.5 5.625C10.5 6.24632 9.99632 6.75 9.375 6.75C8.75368 6.75 8.25 6.24632 8.25 5.625Z" fill="#17120F"/>
</svg>
