<svg width="20" height="20" viewBox="0 0 20 20" fill="none" xmlns="http://www.w3.org/2000/svg">
<g clip-path="url(#clip0_7_255)">
<path fill-rule="evenodd" clip-rule="evenodd" d="M3.75547 8.125H16.2445C16.6235 8.12692 16.9829 7.9568 17.2217 7.66246C17.4604 7.36813 17.5527 6.98137 17.4727 6.61094C16.8922 3.86719 13.75 1.875 10 1.875C6.25 1.875 3.10781 3.86719 2.52734 6.61094C2.44728 6.98137 2.5396 7.36813 2.77834 7.66246C3.01709 7.9568 3.37648 8.12692 3.75547 8.125ZM10 3.125C13.1109 3.125 15.7977 4.73516 16.2445 6.875H3.75547L3.75 6.86953C4.20234 4.73516 6.88906 3.125 10 3.125ZM17.9109 11.9125L14.6977 13.0844L11.7969 11.9195C11.6479 11.86 11.4818 11.86 11.3328 11.9195L8.44219 13.0766L5.54688 11.9195C5.40434 11.8626 5.24583 11.8601 5.10156 11.9125L1.66406 13.1625C1.36255 13.2952 1.21582 13.6392 1.32868 13.9487C1.44154 14.2581 1.77524 14.4269 2.09141 14.3344L3.125 13.9602V14.375C3.125 16.1009 4.52411 17.5 6.25 17.5H13.75C15.4759 17.5 16.875 16.1009 16.875 14.375V13.6195L18.3383 13.0875C18.5619 13.0221 18.7305 12.8377 18.7758 12.6091C18.8211 12.3806 18.7355 12.1458 18.5537 12.0001C18.3719 11.8543 18.1242 11.8218 17.9109 11.9156V11.9125ZM15.625 14.375C15.625 15.4105 14.7855 16.25 13.75 16.25H6.25C5.21447 16.25 4.375 15.4105 4.375 14.375V13.5063L5.30234 13.1687L8.20312 14.3305C8.35208 14.39 8.51823 14.39 8.66719 14.3305L11.5578 13.1734L14.4484 14.3305C14.591 14.3874 14.7495 14.3899 14.8938 14.3375L15.618 14.0742L15.625 14.375ZM1.25 10C1.25 9.65482 1.52982 9.375 1.875 9.375H18.125C18.4702 9.375 18.75 9.65482 18.75 10C18.75 10.3452 18.4702 10.625 18.125 10.625H1.875C1.52982 10.625 1.25 10.3452 1.25 10Z" fill="#17120F"/>
</g>
<defs>
<clipPath id="clip0_7_255">
<rect width="20" height="20" fill="white"/>
</clipPath>
</defs>
</svg>
