<svg width="18" height="20" viewBox="0 0 18 20" fill="none" xmlns="http://www.w3.org/2000/svg">
<path fill-rule="evenodd" clip-rule="evenodd" d="M16.5 1.5H14.25V0.75C14.25 0.335786 13.9142 0 13.5 0C13.0858 0 12.75 0.335786 12.75 0.75V1.5H5.25V0.75C5.25 0.335786 4.91421 0 4.5 0C4.08579 0 3.75 0.335786 3.75 0.75V1.5H1.5C0.671573 1.5 0 2.17157 0 3V18C0 18.8284 0.671573 19.5 1.5 19.5H16.5C17.3284 19.5 18 18.8284 18 18V3C18 2.17157 17.3284 1.5 16.5 1.5V1.5ZM3.75 3V3.75C3.75 4.16421 4.08579 4.5 4.5 4.5C4.91421 4.5 5.25 4.16421 5.25 3.75V3H12.75V3.75C12.75 4.16421 13.0858 4.5 13.5 4.5C13.9142 4.5 14.25 4.16421 14.25 3.75V3H16.5V6H1.5V3H3.75ZM16.5 18H1.5V7.5H16.5V18V18ZM7.5 9.75V15.75C7.5 16.1642 7.16421 16.5 6.75 16.5C6.33579 16.5 6 16.1642 6 15.75V10.9631L5.58562 11.1713C5.2149 11.3566 4.76411 11.2063 4.57875 10.8356C4.39339 10.4649 4.54365 10.0141 4.91437 9.82875L6.41438 9.07875C6.64695 8.96237 6.92322 8.97478 7.14442 9.11155C7.36563 9.24832 7.50019 9.48993 7.5 9.75V9.75ZM13.0462 12.6047L11.25 15H12.75C13.1642 15 13.5 15.3358 13.5 15.75C13.5 16.1642 13.1642 16.5 12.75 16.5H9.75C9.46592 16.5 9.20622 16.3395 9.07918 16.0854C8.95214 15.8313 8.97955 15.5273 9.15 15.3L11.8481 11.7028C12.0153 11.4802 12.0455 11.1833 11.9264 10.9316C11.8073 10.6799 11.5586 10.5149 11.2804 10.503C11.0023 10.4912 10.7404 10.6344 10.6003 10.875C10.4702 11.1146 10.2203 11.2647 9.94765 11.2671C9.675 11.2694 9.42256 11.1236 9.28836 10.8863C9.15415 10.6489 9.15933 10.3574 9.30188 10.125C9.81125 9.24353 10.849 8.81391 11.8324 9.07743C12.8158 9.34095 13.4997 10.2319 13.5 11.25C13.5016 11.7391 13.3421 12.2152 13.0462 12.6047V12.6047Z" fill="#8C6B5E"/>
</svg>
