<svg width="20" height="18" viewBox="0 0 20 18" fill="none" xmlns="http://www.w3.org/2000/svg">
<path fill-rule="evenodd" clip-rule="evenodd" d="M17.25 2.25H14.6513L13.3734 0.33375C13.2344 0.125363 13.0005 0.000150423 12.75 0H6.75C6.49949 0.000150423 6.26559 0.125363 6.12656 0.33375L4.84781 2.25H2.25C1.00736 2.25 0 3.25736 0 4.5V15C0 16.2426 1.00736 17.25 2.25 17.25H17.25C18.4926 17.25 19.5 16.2426 19.5 15V4.5C19.5 3.25736 18.4926 2.25 17.25 2.25V2.25ZM18 15C18 15.4142 17.6642 15.75 17.25 15.75H2.25C1.83579 15.75 1.5 15.4142 1.5 15V4.5C1.5 4.08579 1.83579 3.75 2.25 3.75H5.25C5.50084 3.75016 5.73516 3.62491 5.87438 3.41625L7.15125 1.5H12.3478L13.6256 3.41625C13.7648 3.62491 13.9992 3.75016 14.25 3.75H17.25C17.6642 3.75 18 4.08579 18 4.5V15ZM9.75 5.25C7.47183 5.25 5.625 7.09683 5.625 9.375C5.625 11.6532 7.47183 13.5 9.75 13.5C12.0282 13.5 13.875 11.6532 13.875 9.375C13.8724 7.0979 12.0271 5.25258 9.75 5.25V5.25ZM9.75 12C8.30025 12 7.125 10.8247 7.125 9.375C7.125 7.92525 8.30025 6.75 9.75 6.75C11.1997 6.75 12.375 7.92525 12.375 9.375C12.375 10.8247 11.1997 12 9.75 12V12Z" fill="white"/>
</svg>
