<svg width="21" height="21" viewBox="0 0 21 21" fill="none" xmlns="http://www.w3.org/2000/svg">
<path fill-rule="evenodd" clip-rule="evenodd" d="M20.0756 4.01906C19.9331 3.84851 19.7223 3.74996 19.5 3.75H4.37625L3.91781 1.23187C3.78823 0.518625 3.16711 0.000104785 2.44219 0H0.75C0.335786 0 0 0.335786 0 0.75C0 1.16421 0.335786 1.5 0.75 1.5H2.4375L4.83375 14.6522C4.90434 15.0422 5.07671 15.4067 5.33344 15.7087C4.34996 16.6273 4.22046 18.1409 5.0336 19.2132C5.84675 20.2855 7.33911 20.5692 8.48899 19.87C9.63888 19.1709 10.0738 17.7154 9.49594 16.5H13.7541C13.5863 16.8513 13.4995 17.2357 13.5 17.625C13.5 19.0747 14.6753 20.25 16.125 20.25C17.5747 20.25 18.75 19.0747 18.75 17.625C18.75 16.1753 17.5747 15 16.125 15H7.04719C6.68472 14.9999 6.37417 14.7407 6.30937 14.3841L6.01219 12.75H16.8872C17.9746 12.7498 18.9063 11.9721 19.1006 10.9022L20.2406 4.63406C20.2797 4.41473 20.2192 4.18938 20.0756 4.01906ZM8.25 17.625C8.25 18.2463 7.74632 18.75 7.125 18.75C6.50368 18.75 6 18.2463 6 17.625C6 17.0037 6.50368 16.5 7.125 16.5C7.74632 16.5 8.25 17.0037 8.25 17.625ZM17.25 17.625C17.25 18.2463 16.7463 18.75 16.125 18.75C15.5037 18.75 15 18.2463 15 17.625C15 17.0037 15.5037 16.5 16.125 16.5C16.7463 16.5 17.25 17.0037 17.25 17.625ZM17.625 10.6341C17.56 10.9917 17.2479 11.2513 16.8844 11.25H5.73938L4.64906 5.25H18.6009L17.625 10.6341Z" fill="#17120F"/>
</svg>
