<svg width="23" height="14" viewBox="0 0 23 14" fill="none" xmlns="http://www.w3.org/2000/svg">
<path fill-rule="evenodd" clip-rule="evenodd" d="M11.25 3C9.17893 3 7.5 4.67893 7.5 6.75C7.5 8.82107 9.17893 10.5 11.25 10.5C13.3211 10.5 15 8.82107 15 6.75C15 4.67893 13.3211 3 11.25 3V3ZM11.25 9C10.0074 9 9 7.99264 9 6.75C9 5.50736 10.0074 4.5 11.25 4.5C12.4926 4.5 13.5 5.50736 13.5 6.75C13.5 7.99264 12.4926 9 11.25 9V9ZM21.75 0H0.75C0.335786 0 0 0.335786 0 0.75V12.75C0 13.1642 0.335786 13.5 0.75 13.5H21.75C22.1642 13.5 22.5 13.1642 22.5 12.75V0.75C22.5 0.335786 22.1642 0 21.75 0V0ZM17.4047 12H5.09531C4.58369 10.2697 3.23033 8.91631 1.5 8.40469V5.09531C3.23033 4.58369 4.58369 3.23033 5.09531 1.5H17.4047C17.9163 3.23033 19.2697 4.58369 21 5.09531V8.40469C19.2697 8.91631 17.9163 10.2697 17.4047 12V12ZM21 3.50344C20.1004 3.11662 19.3834 2.39959 18.9966 1.5H21V3.50344ZM3.50344 1.5C3.11662 2.39959 2.39959 3.11662 1.5 3.50344V1.5H3.50344ZM1.5 9.99656C2.39959 10.3834 3.11662 11.1004 3.50344 12H1.5V9.99656ZM18.9966 12C19.3834 11.1004 20.1004 10.3834 21 9.99656V12H18.9966Z" fill="#17120F"/>
</svg>
