<svg width="20" height="20" viewBox="0 0 20 20" fill="none" xmlns="http://www.w3.org/2000/svg">
<path fill-rule="evenodd" clip-rule="evenodd" d="M13.2806 7.28063L10.8103 9.75L13.2806 12.2194C13.5737 12.5124 13.5737 12.9876 13.2806 13.2806C12.9876 13.5737 12.5124 13.5737 12.2194 13.2806L9.75 10.8103L7.28063 13.2806C6.98757 13.5737 6.51243 13.5737 6.21937 13.2806C5.92632 12.9876 5.92632 12.5124 6.21937 12.2194L8.68969 9.75L6.21937 7.28063C5.92632 6.98757 5.92632 6.51243 6.21937 6.21937C6.51243 5.92632 6.98757 5.92632 7.28063 6.21937L9.75 8.68969L12.2194 6.21937C12.5124 5.92632 12.9876 5.92632 13.2806 6.21937C13.5737 6.51243 13.5737 6.98757 13.2806 7.28063ZM19.5 9.75C19.5 15.1348 15.1348 19.5 9.75 19.5C4.36522 19.5 0 15.1348 0 9.75C0 4.36522 4.36522 0 9.75 0C15.1324 0.0056839 19.4943 4.36758 19.5 9.75ZM18 9.75C18 5.19365 14.3063 1.5 9.75 1.5C5.19365 1.5 1.5 5.19365 1.5 9.75C1.5 14.3063 5.19365 18 9.75 18C14.3042 17.9948 17.9948 14.3042 18 9.75Z" fill="#8A6B61"/>
</svg>
