<svg width="24" height="24" viewBox="0 0 24 24" fill="none" xmlns="http://www.w3.org/2000/svg">
<g clip-path="url(#clip0_7_226)">
<path fill-rule="evenodd" clip-rule="evenodd" d="M21.3103 6.87844L17.1216 2.68875C16.8402 2.40737 16.4587 2.24929 16.0608 2.24929C15.6629 2.24929 15.2813 2.40737 15 2.68875L3.43969 14.25C3.15711 14.5303 2.99873 14.9123 3 15.3103V19.5C3 20.3284 3.67157 21 4.5 21H8.68969C9.08773 21.0013 9.46966 20.8429 9.75 20.5603L21.3103 9C21.5917 8.71869 21.7498 8.3371 21.7498 7.93922C21.7498 7.54133 21.5917 7.15975 21.3103 6.87844ZM8.68969 19.5H4.5V15.3103L12.75 7.06031L16.9397 11.25L8.68969 19.5ZM18 10.1888L13.8103 6L16.0603 3.75L20.25 7.93875L18 10.1888Z" fill="#17120F"/>
</g>
<defs>
<clipPath id="clip0_7_226">
<rect width="24" height="24" fill="white"/>
</clipPath>
</defs>
</svg>
