<svg width="20" height="15" viewBox="0 0 20 15" fill="none" xmlns="http://www.w3.org/2000/svg">
<path fill-rule="evenodd" clip-rule="evenodd" d="M18.75 0H0.75C0.335786 0 0 0.335786 0 0.75V13.5C0 14.3284 0.671573 15 1.5 15H18C18.8284 15 19.5 14.3284 19.5 13.5V0.75C19.5 0.335786 19.1642 0 18.75 0V0ZM9.75 7.98281L2.67844 1.5H16.8216L9.75 7.98281ZM7.00406 7.5L1.5 12.5447V2.45531L7.00406 7.5ZM8.11406 8.51719L9.23906 9.55313C9.52592 9.81645 9.96658 9.81645 10.2534 9.55313L11.3784 8.51719L16.8159 13.5H2.67844L8.11406 8.51719ZM12.4959 7.5L18 2.45437V12.5456L12.4959 7.5Z" fill="#8C6B5E"/>
</svg>
