<svg width="24" height="24" viewBox="0 0 24 24" fill="none" xmlns="http://www.w3.org/2000/svg">
<g clip-path="url(#clip0_7_367)">
<path fill-rule="evenodd" clip-rule="evenodd" d="M16.6875 3C14.7516 3 13.0566 3.8325 12 5.23969C10.9434 3.8325 9.24844 3 7.3125 3C4.10384 3.00362 1.50362 5.60384 1.5 8.8125C1.5 15.375 11.2303 20.6869 11.6447 20.9062C11.8665 21.0256 12.1335 21.0256 12.3553 20.9062C12.7697 20.6869 22.5 15.375 22.5 8.8125C22.4964 5.60384 19.8962 3.00362 16.6875 3ZM12 19.3875C10.2881 18.39 3 13.8459 3 8.8125C3.0031 6.43206 4.93206 4.5031 7.3125 4.5C9.13594 4.5 10.6669 5.47125 11.3062 7.03125C11.4218 7.31259 11.6959 7.49627 12 7.49627C12.3041 7.49627 12.5782 7.31259 12.6938 7.03125C13.3331 5.46844 14.8641 4.5 16.6875 4.5C19.0679 4.5031 20.9969 6.43206 21 8.8125C21 13.8384 13.71 18.3891 12 19.3875Z" fill="#8C6B5E"/>
</g>
<defs>
<clipPath id="clip0_7_367">
<rect width="24" height="24" fill="white"/>
</clipPath>
</defs>
</svg>
