<svg width="18" height="19" viewBox="0 0 18 19" fill="none" xmlns="http://www.w3.org/2000/svg">
<path fill-rule="evenodd" clip-rule="evenodd" d="M17.5153 7.47673L10.0153 0.400479C10.0116 0.39728 10.0082 0.393834 10.005 0.390166C9.43281 -0.130208 8.55876 -0.130208 7.98656 0.390166L7.97625 0.400479L0.484688 7.47673C0.17573 7.76083 -6.38962e-05 8.16138 0 8.5811V17.2483C0 18.0767 0.671573 18.7483 1.5 18.7483H6C6.82843 18.7483 7.5 18.0767 7.5 17.2483V12.7483H10.5V17.2483C10.5 18.0767 11.1716 18.7483 12 18.7483H16.5C17.3284 18.7483 18 18.0767 18 17.2483V8.5811C18.0001 8.16138 17.8243 7.76083 17.5153 7.47673ZM16.5 17.2483H12V12.7483C12 11.9199 11.3284 11.2483 10.5 11.2483H7.5C6.67157 11.2483 6 11.9199 6 12.7483V17.2483H1.5V8.5811L1.51031 8.57173L9 1.49829L16.4906 8.56985L16.5009 8.57923L16.5 17.2483Z" fill="#8C6B5E"/>
</svg>
