<svg width="24" height="24" viewBox="0 0 24 24" fill="none" xmlns="http://www.w3.org/2000/svg">
<g clip-path="url(#clip0_7_219)">
<path fill-rule="evenodd" clip-rule="evenodd" d="M12 6C9.92893 6 8.25 7.67893 8.25 9.75C8.25 11.8211 9.92893 13.5 12 13.5C14.0711 13.5 15.75 11.8211 15.75 9.75C15.75 7.67893 14.0711 6 12 6ZM12 12C10.7574 12 9.75 10.9926 9.75 9.75C9.75 8.50736 10.7574 7.5 12 7.5C13.2426 7.5 14.25 8.50736 14.25 9.75C14.25 10.9926 13.2426 12 12 12ZM12 1.5C7.44579 1.50517 3.75517 5.19579 3.75 9.75C3.75 12.6938 5.11031 15.8138 7.6875 18.7734C8.84552 20.1108 10.1489 21.3151 11.5734 22.3641C11.8318 22.545 12.1757 22.545 12.4341 22.3641C13.856 21.3147 15.1568 20.1104 16.3125 18.7734C18.8859 15.8138 20.25 12.6938 20.25 9.75C20.2448 5.19579 16.5542 1.50517 12 1.5ZM12 20.8125C10.4503 19.5938 5.25 15.1172 5.25 9.75C5.25 6.02208 8.27208 3 12 3C15.7279 3 18.75 6.02208 18.75 9.75C18.75 15.1153 13.5497 19.5938 12 20.8125Z" fill="#17120F"/>
</g>
<defs>
<clipPath id="clip0_7_219">
<rect width="24" height="24" fill="white"/>
</clipPath>
</defs>
</svg>
