<svg width="20" height="17" viewBox="0 0 20 17" fill="none" xmlns="http://www.w3.org/2000/svg">
<path fill-rule="evenodd" clip-rule="evenodd" d="M4.5 6C4.5 5.58579 4.83579 5.25 5.25 5.25H14.25C14.6642 5.25 15 5.58579 15 6C15 6.41421 14.6642 6.75 14.25 6.75H5.25C4.83579 6.75 4.5 6.41421 4.5 6ZM5.25 9.75H14.25C14.6642 9.75 15 9.41421 15 9C15 8.58579 14.6642 8.25 14.25 8.25H5.25C4.83579 8.25 4.5 8.58579 4.5 9C4.5 9.41421 4.83579 9.75 5.25 9.75ZM19.5 1.5V15.75C19.4999 16.0099 19.3652 16.2512 19.144 16.3878C18.9229 16.5243 18.6468 16.5366 18.4144 16.4203L15.75 15.0881L13.0856 16.4203C12.8744 16.526 12.6256 16.526 12.4144 16.4203L9.75 15.0881L7.08562 16.4203C6.87436 16.526 6.62564 16.526 6.41438 16.4203L3.75 15.0881L1.08562 16.4203C0.853196 16.5366 0.577121 16.5243 0.355974 16.3878C0.134828 16.2512 0.00013876 16.0099 0 15.75V1.5C0 0.671573 0.671573 0 1.5 0H18C18.8284 0 19.5 0.671573 19.5 1.5ZM18 1.5H1.5V14.5369L3.41437 13.5788C3.62564 13.473 3.87436 13.473 4.08563 13.5788L6.75 14.9119L9.41438 13.5788C9.62564 13.473 9.87436 13.473 10.0856 13.5788L12.75 14.9119L15.4144 13.5788C15.6256 13.473 15.8744 13.473 16.0856 13.5788L18 14.5369V1.5Z" fill="#17120F"/>
</svg>
