<svg width="24" height="24" viewBox="0 0 24 24" fill="none" xmlns="http://www.w3.org/2000/svg">
<g clip-path="url(#clip0_7_360)">
<path fill-rule="evenodd" clip-rule="evenodd" d="M6.75 9.75C6.75 9.33579 7.08579 9 7.5 9H16.5C16.9142 9 17.25 9.33579 17.25 9.75C17.25 10.1642 16.9142 10.5 16.5 10.5H7.5C7.08579 10.5 6.75 10.1642 6.75 9.75ZM7.5 13.5H16.5C16.9142 13.5 17.25 13.1642 17.25 12.75C17.25 12.3358 16.9142 12 16.5 12H7.5C7.08579 12 6.75 12.3358 6.75 12.75C6.75 13.1642 7.08579 13.5 7.5 13.5ZM21.75 5.25V19.5C21.7499 19.7599 21.6152 20.0012 21.394 20.1378C21.1729 20.2743 20.8968 20.2866 20.6644 20.1703L18 18.8381L15.3356 20.1703C15.1244 20.276 14.8756 20.276 14.6644 20.1703L12 18.8381L9.33562 20.1703C9.12436 20.276 8.87564 20.276 8.66438 20.1703L6 18.8381L3.33562 20.1703C3.1032 20.2866 2.82712 20.2743 2.60597 20.1378C2.38483 20.0012 2.25014 19.7599 2.25 19.5V5.25C2.25 4.42157 2.92157 3.75 3.75 3.75H20.25C21.0784 3.75 21.75 4.42157 21.75 5.25ZM20.25 5.25H3.75V18.2869L5.66437 17.3288C5.87564 17.223 6.12436 17.223 6.33563 17.3288L9 18.6619L11.6644 17.3288C11.8756 17.223 12.1244 17.223 12.3356 17.3288L15 18.6619L17.6644 17.3288C17.8756 17.223 18.1244 17.223 18.3356 17.3288L20.25 18.2869V5.25Z" fill="#8C6B5E"/>
</g>
<defs>
<clipPath id="clip0_7_360">
<rect width="24" height="24" fill="white"/>
</clipPath>
</defs>
</svg>
