<svg width="19" height="19" viewBox="0 0 19 19" fill="none" xmlns="http://www.w3.org/2000/svg">
<path fill-rule="evenodd" clip-rule="evenodd" d="M17.8472 12.6056L13.4306 10.6266L13.4184 10.6209C12.9526 10.4217 12.4177 10.4711 11.9963 10.7522C11.9718 10.7683 11.9483 10.7859 11.9259 10.8047L9.64406 12.75C8.19844 12.0478 6.70594 10.5666 6.00375 9.13969L7.95187 6.82312C7.97062 6.79969 7.98844 6.77625 8.00531 6.75094C8.28032 6.3307 8.32677 5.80073 8.12906 5.33906V5.32781L6.14437 0.90375C5.88009 0.293904 5.246 -0.0693075 4.58625 0.01125C1.95833 0.357054 -0.00475144 2.59943 0 5.25C0 12.6937 6.05625 18.75 13.5 18.75C16.1506 18.7548 18.3929 16.7917 18.7388 14.1637C18.8195 13.5042 18.4567 12.8702 17.8472 12.6056V12.6056ZM13.5 17.25C6.87558 17.2428 1.50723 11.8744 1.5 5.25C1.4927 3.35618 2.89195 1.75108 4.76906 1.5C4.76869 1.50374 4.76869 1.50751 4.76906 1.51125L6.73781 5.9175L4.8 8.23687C4.78033 8.25951 4.76246 8.28364 4.74656 8.30906C4.45961 8.74938 4.42405 9.30777 4.65281 9.78094C5.50219 11.5181 7.2525 13.2553 9.00844 14.1038C9.48515 14.3304 10.0459 14.2898 10.485 13.9969C10.5091 13.9807 10.5322 13.9631 10.5544 13.9444L12.8334 12L17.2397 13.9734V13.9734C17.2397 13.9734 17.2472 13.9734 17.25 13.9734C17.002 15.8533 15.3962 17.2564 13.5 17.25V17.25Z" fill="#8C6B5E"/>
</svg>
