<svg width="20" height="20" viewBox="0 0 20 20" fill="none" xmlns="http://www.w3.org/2000/svg">
<g clip-path="url(#clip0_7_248)">
<path fill-rule="evenodd" clip-rule="evenodd" d="M18.7141 4.92188C18.6363 4.5987 18.4323 4.32014 18.1477 4.14844C13.1385 1.11825 6.86151 1.11825 1.85234 4.14844C1.56858 4.32054 1.3649 4.59842 1.2862 4.92082C1.2075 5.24323 1.26025 5.5837 1.43281 5.86719L8.93281 18.1539C9.15942 18.5275 9.56463 18.7556 10.0016 18.7556C10.4385 18.7556 10.8437 18.5275 11.0703 18.1539L18.5703 5.86719C18.7431 5.58413 18.7949 5.2435 18.7141 4.92188ZM4.96797 9.25781C5.52365 8.73414 6.34138 8.59973 7.03544 8.91799C7.72951 9.23625 8.16125 9.94359 8.12703 10.7064C8.09281 11.4692 7.59946 12.135 6.87969 12.3898L4.96797 9.25781ZM11.8367 14.4883C11.1916 13.88 11.0608 12.9031 11.5231 12.1465C11.9854 11.3899 12.9144 11.0606 13.75 11.357L11.8367 14.4883ZM14.4094 10.275C12.9718 9.62251 11.2734 10.1447 10.4507 11.4921C9.62796 12.8395 9.93939 14.5889 11.1766 15.5695L10 17.5L7.53906 13.4711C8.64194 12.9741 9.35893 11.8852 9.37973 10.6757C9.40054 9.46624 8.72141 8.35336 7.63628 7.81875C6.55114 7.28413 5.25492 7.42381 4.30859 8.17734L3.8125 7.36406C7.61133 5.04519 12.3879 5.04519 16.1867 7.36406L14.4094 10.275ZM16.8391 6.29609C12.6394 3.73472 7.36058 3.73472 3.16094 6.29609L2.5 5.21641C7.1116 2.4293 12.8884 2.4293 17.5 5.21641L16.8391 6.29609Z" fill="#17120F"/>
</g>
<defs>
<clipPath id="clip0_7_248">
<rect width="20" height="20" fill="white"/>
</clipPath>
</defs>
</svg>
