<svg width="20" height="20" viewBox="0 0 20 20" fill="none" xmlns="http://www.w3.org/2000/svg">
<path fill-rule="evenodd" clip-rule="evenodd" d="M9.75 0C4.36522 0 0 4.36522 0 9.75C0 15.1348 4.36522 19.5 9.75 19.5C15.1348 19.5 19.5 15.1348 19.5 9.75C19.4943 4.36758 15.1324 0.0056839 9.75 0ZM9.75 18C5.19365 18 1.5 14.3063 1.5 9.75C1.5 5.19365 5.19365 1.5 9.75 1.5C14.3063 1.5 18 5.19365 18 9.75C17.9948 14.3042 14.3042 17.9948 9.75 18ZM15.75 9.75C15.75 10.1642 15.4142 10.5 15 10.5H9.75C9.33579 10.5 9 10.1642 9 9.75V4.5C9 4.08579 9.33579 3.75 9.75 3.75C10.1642 3.75 10.5 4.08579 10.5 4.5V9H15C15.4142 9 15.75 9.33579 15.75 9.75Z" fill="#171212"/>
</svg>
