<svg width="20" height="20" viewBox="0 0 20 20" fill="none" xmlns="http://www.w3.org/2000/svg">
<path fill-rule="evenodd" clip-rule="evenodd" d="M9.81012 5.31006C7.32484 5.31006 5.31012 7.32478 5.31012 9.81006C5.31012 12.2953 7.32484 14.3101 9.81012 14.3101C12.2954 14.3101 14.3101 12.2953 14.3101 9.81006C14.3075 7.32585 12.2943 5.31264 9.81012 5.31006ZM9.81012 12.8101C8.15326 12.8101 6.81012 11.4669 6.81012 9.81006C6.81012 8.1532 8.15326 6.81006 9.81012 6.81006C11.467 6.81006 12.8101 8.1532 12.8101 9.81006C12.8101 11.4669 11.467 12.8101 9.81012 12.8101ZM18.0601 10.0126C18.0639 9.87756 18.0639 9.74256 18.0601 9.60756L19.4589 7.86006C19.6076 7.67399 19.6591 7.42832 19.5976 7.19818C19.3683 6.33625 19.0253 5.50867 18.5776 4.73725C18.4588 4.53255 18.2503 4.39598 18.0151 4.36881L15.7914 4.12131C15.6989 4.02381 15.6051 3.93006 15.5101 3.84006L15.2476 1.61068C15.2202 1.37537 15.0833 1.16682 14.8782 1.04818C14.1065 0.601321 13.279 0.258653 12.4173 0.0291212C12.187 -0.032105 11.9413 0.0197453 11.7554 0.168809L10.0126 1.56006C9.87762 1.56006 9.74262 1.56006 9.60762 1.56006L7.86012 0.164121C7.67405 0.0153844 7.42839 -0.0361145 7.19825 0.0253711C6.33645 0.255084 5.50892 0.598074 4.73731 1.04537C4.53261 1.16423 4.39604 1.37274 4.36887 1.60787L4.12137 3.83537C4.02387 3.9285 3.93012 4.02225 3.84012 4.11662L1.61074 4.37256C1.37543 4.39994 1.16688 4.53688 1.04824 4.74193C0.601382 5.51365 0.258714 6.34116 0.0291822 7.20287C-0.0320439 7.43316 0.0198064 7.67884 0.16887 7.86475L1.56012 9.60756C1.56012 9.74256 1.56012 9.87756 1.56012 10.0126L0.164182 11.7601C0.0154455 11.9461 -0.0360534 12.1918 0.0254321 12.4219C0.254735 13.2839 0.597747 14.1115 1.04543 14.8829C1.16429 15.0876 1.3728 15.2241 1.60793 15.2513L3.83168 15.4988C3.92481 15.5963 4.01856 15.6901 4.11293 15.7801L4.37262 18.0094C4.4 18.2447 4.53694 18.4533 4.74199 18.5719C5.51371 19.0188 6.34122 19.3615 7.20293 19.591C7.43322 19.6522 7.6789 19.6004 7.86481 19.4513L9.60762 18.0601C9.74262 18.0638 9.87762 18.0638 10.0126 18.0601L11.7601 19.4588C11.9462 19.6075 12.1919 19.659 12.422 19.5976C13.2839 19.3683 14.1115 19.0252 14.8829 18.5776C15.0876 18.4587 15.2242 18.2502 15.2514 18.0151L15.4989 15.7913C15.5964 15.6988 15.6901 15.6051 15.7801 15.5101L18.0095 15.2476C18.2448 15.2202 18.4534 15.0832 18.572 14.8782C19.0189 14.1065 19.3615 13.279 19.5911 12.4172C19.6523 12.187 19.6004 11.9413 19.4514 11.7554L18.0601 10.0126ZM16.5507 9.40318C16.5667 9.6742 16.5667 9.94592 16.5507 10.2169C16.5396 10.4025 16.5977 10.5856 16.7139 10.7307L18.0442 12.3929C17.8915 12.878 17.6961 13.3486 17.4601 13.7991L15.3414 14.0391C15.1569 14.0596 14.9865 14.1478 14.8632 14.2866C14.6828 14.4896 14.4906 14.6818 14.2876 14.8622C14.1488 14.9855 14.0606 15.1559 14.0401 15.3404L13.8048 17.4572C13.3543 17.6933 12.8837 17.8888 12.3986 18.0413L10.7354 16.711C10.6023 16.6047 10.437 16.5468 10.2667 16.5469H10.2217C9.95067 16.5629 9.67895 16.5629 9.40793 16.5469C9.22238 16.5358 9.0393 16.5939 8.89418 16.7101L7.22731 18.0413C6.74218 17.8887 6.27158 17.6932 5.82106 17.4572L5.58106 15.3413C5.56058 15.1568 5.47239 14.9864 5.33356 14.8632C5.1306 14.6827 4.93839 14.4905 4.75793 14.2876C4.63468 14.1487 4.46432 14.0605 4.27981 14.0401L2.16293 13.8038C1.92686 13.3533 1.7314 12.8827 1.57887 12.3976L2.90918 10.7344C3.02534 10.5893 3.08348 10.4062 3.07231 10.2207C3.05637 9.94967 3.05637 9.67795 3.07231 9.40693C3.08348 9.22139 3.02534 9.0383 2.90918 8.89318L1.57887 7.22725C1.73152 6.74212 1.92697 6.27152 2.16293 5.821L4.27887 5.581C4.46338 5.56051 4.63374 5.47233 4.75699 5.3335C4.93745 5.13054 5.12966 4.93833 5.33262 4.75787C5.472 4.63454 5.56055 4.46379 5.58106 4.27881L5.81637 2.16287C6.26684 1.9268 6.73745 1.73134 7.22262 1.57881L8.88575 2.90912C9.03086 3.02528 9.21395 3.08342 9.39949 3.07225C9.67051 3.05631 9.94223 3.05631 10.2132 3.07225C10.3988 3.08342 10.5819 3.02528 10.727 2.90912L12.3929 1.57881C12.8781 1.73146 13.3487 1.92691 13.7992 2.16287L14.0392 4.27881C14.0597 4.46332 14.1479 4.63368 14.2867 4.75693C14.4896 4.93739 14.6818 5.1296 14.8623 5.33256C14.9856 5.47139 15.1559 5.55958 15.3404 5.58006L17.4573 5.81537C17.6934 6.26584 17.8888 6.73645 18.0414 7.22162L16.7111 8.88475C16.5938 9.03109 16.5356 9.21605 16.5479 9.40318H16.5507Z" fill="#17120F"/>
</svg>
