<svg width="20" height="18" viewBox="0 0 20 18" fill="none" xmlns="http://www.w3.org/2000/svg">
<path fill-rule="evenodd" clip-rule="evenodd" d="M18 3H14.25V2.25C14.25 1.00736 13.2426 0 12 0H7.5C6.25736 0 5.25 1.00736 5.25 2.25V3H1.5C0.671573 3 0 3.67157 0 4.5V16.5C0 17.3284 0.671573 18 1.5 18H18C18.8284 18 19.5 17.3284 19.5 16.5V4.5C19.5 3.67157 18.8284 3 18 3ZM6.75 2.25C6.75 1.83579 7.08579 1.5 7.5 1.5H12C12.4142 1.5 12.75 1.83579 12.75 2.25V3H6.75V2.25ZM18 4.5V8.40094C15.4685 9.77885 12.6322 10.5005 9.75 10.5C6.86794 10.5005 4.03165 9.7792 1.5 8.40187V4.5H18ZM18 16.5H1.5V10.0913C4.06868 11.3477 6.8905 12.0006 9.75 12C12.6096 12.0001 15.4313 11.3469 18 10.0903V16.5ZM7.5 8.25C7.5 7.83579 7.83579 7.5 8.25 7.5H11.25C11.6642 7.5 12 7.83579 12 8.25C12 8.66421 11.6642 9 11.25 9H8.25C7.83579 9 7.5 8.66421 7.5 8.25Z" fill="#17120F"/>
</svg>
