<svg width="20" height="20" viewBox="0 0 20 20" fill="none" xmlns="http://www.w3.org/2000/svg">
<g clip-path="url(#clip0_7_261)">
<path fill-rule="evenodd" clip-rule="evenodd" d="M13.1297 5.93281C13.1297 6.45058 12.71 6.87031 12.1922 6.87031C11.6744 6.87031 11.2547 6.45058 11.2547 5.93281C11.2547 5.41505 11.6744 4.99531 12.1922 4.99531C12.71 4.99531 13.1297 5.41505 13.1297 5.93281ZM16.2445 12.2609C14.6227 14.3211 12.0375 15.4437 8.55625 15.6023L6.8375 19.6195C6.73912 19.851 6.51162 20.0009 6.26016 20H6.22031C5.9564 19.9835 5.73146 19.8026 5.65859 19.5484L4.50156 15.4977L0.453125 14.3383C0.198201 14.2667 0.0160616 14.0422 -0.00149364 13.778C-0.0190489 13.5138 0.13179 13.2672 0.375 13.1625L4.39297 11.4438C4.54922 7.96172 5.675 5.37656 7.73594 3.75547C11.1117 1.09922 15.932 1.97188 16.8641 2.17344C17.3436 2.27706 17.7183 2.65167 17.8219 3.13125C18.0281 4.0625 18.9016 8.8875 16.2445 12.2656V12.2609ZM12.625 13.4852C11.1501 12.9233 10.1327 11.5598 10.0141 9.98594C8.44056 9.86756 7.07724 8.85041 6.51562 7.37578C5.96875 8.61484 5.675 10.1188 5.63281 11.8773C5.62686 12.1219 5.47879 12.3405 5.25391 12.4367L2.4875 13.6203L5.17969 14.3914C5.3871 14.4508 5.54923 14.6129 5.60859 14.8203L6.37734 17.5125L7.56328 14.7461C7.65987 14.5204 7.8796 14.3722 8.125 14.3672C9.88125 14.3258 11.3852 14.0305 12.625 13.4852ZM16.6039 3.39609C15.768 3.21484 11.4477 2.42812 8.5125 4.73828C8.14254 5.02985 7.80634 5.36186 7.51016 5.72813C7.44946 6.55476 7.75648 7.36608 8.34924 7.94544C8.94199 8.52479 9.76012 8.81318 10.5852 8.73359C10.7707 8.71599 10.9544 8.78209 11.0861 8.91386C11.2179 9.04563 11.284 9.22933 11.2664 9.41484C11.1868 10.2402 11.4753 11.0586 12.0551 11.6514C12.6348 12.2442 13.4465 12.551 14.2734 12.4898C14.6392 12.1942 14.9707 11.8585 15.2617 11.4891C17.5719 8.55391 16.7852 4.23281 16.6039 3.39609Z" fill="#17120F"/>
</g>
<defs>
<clipPath id="clip0_7_261">
<rect width="20" height="20" fill="white"/>
</clipPath>
</defs>
</svg>
